<?xml version="1.0" encoding="iso-8859-1"?>
<!-- Generator: Adobe Illustrator 19.0.0, SVG Export Plug-In . SVG Version: 6.00 Build 0)  -->
<svg version="1.1" id="Capa_1" xmlns="http://www.w3.org/2000/svg" xmlns:xlink="http://www.w3.org/1999/xlink" x="0px" y="0px"
	 viewBox="0 0 512 512" style="enable-background:new 0 0 512 512;" xml:space="preserve">
<g>
	<g>
		<g>
			<path d="M0,0v512h512V0H0z M480,480H32V160h448V480z M480,128H32V32h448V128z"/>
			<rect x="64" y="64" width="32" height="32"/>
			<rect x="128" y="64" width="32" height="32"/>
			<rect x="192" y="64" width="256" height="32"/>
			<path d="M176,352h8c30.928,0,56-25.072,56-56c0-30.928-25.072-56-56-56h-40v160h32V352z M176,272h8c13.255,0,24,10.745,24,24
				s-10.745,24-24,24h-8V272z"/>
			<polygon points="304,400 336,400 336,342.624 368,310.624 368,240 336,240 336,297.376 320,313.376 304,297.376 304,240 272,240 
				272,310.624 304,342.624 			"/>
		</g>
	</g>
</g>
<g>
</g>
<g>
</g>
<g>
</g>
<g>
</g>
<g>
</g>
<g>
</g>
<g>
</g>
<g>
</g>
<g>
</g>
<g>
</g>
<g>
</g>
<g>
</g>
<g>
</g>
<g>
</g>
<g>
</g>
</svg>
