<?xml version="1.0" encoding="iso-8859-1"?>
<!-- Generator: Adobe Illustrator 19.0.0, SVG Export Plug-In . SVG Version: 6.00 Build 0)  -->
<svg version="1.1" id="Capa_1" xmlns="http://www.w3.org/2000/svg" xmlns:xlink="http://www.w3.org/1999/xlink" x="0px" y="0px"
	 viewBox="0 0 512 512" style="enable-background:new 0 0 512 512;" xml:space="preserve">
<g>
	<g>
		<path d="M0,67.666v376.667h512V67.666H0z M482,414.333H30v-210h452V414.333z M482,174.333H30V97.666h452V174.333z"/>
	</g>
</g>
<g>
	<g>
		<rect x="53.33" y="121" width="30" height="30"/>
	</g>
</g>
<g>
	<g>
		<rect x="102.33" y="121" width="30" height="30"/>
	</g>
</g>
<g>
	<g>
		<rect x="151.33" y="121" width="30" height="30"/>
	</g>
</g>
<g>
	<g>
		<path d="M194.582,317.056c-1.501-3.497-3.649-6.476-6.444-8.923c-2.807-2.454-6.176-4.577-10.13-6.378
			c-3.942-1.8-8.373-3.448-13.267-4.949c-3.1-0.995-5.871-1.849-8.324-2.551c-2.453-0.696-4.528-1.422-6.225-2.173
			c-1.697-0.751-3.003-1.574-3.906-2.471c-0.891-0.903-1.343-2.051-1.343-3.454c0-1.898,0.769-3.247,2.319-4.046
			c1.55-0.799,3.625-1.202,6.225-1.202c3.198,0,6.481,0.525,9.825,1.575c3.344,1.049,6.371,2.178,9.081,3.375
			c3.198,1.404,6.298,3.002,9.288,4.803l12.608-24.148c-2.404-1.203-5.102-2.478-8.104-3.827c-3.002-1.349-6.225-2.6-9.679-3.747
			c-3.442-1.147-7.018-2.099-10.716-2.85c-3.698-0.751-7.506-1.123-11.4-1.123c-5.297,0-10.326,0.775-15.074,2.325
			s-8.971,3.82-12.669,6.823c-3.698,2.997-6.627,6.75-8.776,11.247c-2.148,4.498-3.222,9.697-3.222,15.599
			c0,3.899,0.525,7.348,1.575,10.35c1.05,2.996,2.673,5.675,4.87,8.019c2.197,2.356,5.004,4.455,8.397,6.304
			c3.405,1.849,7.445,3.576,12.156,5.169c3.198,1.105,6.213,2.05,9.068,2.85c2.844,0.806,5.37,1.605,7.567,2.404
			c2.209,0.799,3.93,1.721,5.175,2.77c1.257,1.05,1.88,2.325,1.88,3.827c0,1.403-0.622,2.526-1.88,3.374
			c-1.245,0.849-3.466,1.275-6.664,1.275c-4.199,0-8.324-0.598-12.376-1.8c-4.052-1.202-7.677-2.551-10.875-4.052
			c-3.796-1.696-7.445-3.649-10.948-5.846L110,351.25c3.198,1.904,6.676,3.601,10.423,5.102c3.747,1.501,7.641,2.801,11.693,3.9
			c4.052,1.098,8.129,1.947,12.23,2.551c4.101,0.598,8.092,0.897,11.998,0.897c4.894,0,9.764-0.574,14.622-1.721
			c4.846-1.154,9.191-3.027,13.047-5.627c3.845-2.6,6.945-6.072,9.3-10.423c2.343-4.351,3.515-9.721,3.515-16.123
			C196.828,324.807,196.083,320.559,194.582,317.056z"/>
	</g>
</g>
<g>
	<g>
		<path d="M298.523,344.805c4.296-4.804,7.628-10.223,9.972-16.277c2.356-6.048,3.527-12.37,3.527-18.973
			c0-6.798-1.269-13.444-3.82-19.943c-2.551-6.499-6.176-12.303-10.875-17.399c-4.699-5.102-10.35-9.227-16.953-12.376
			c-6.591-3.149-13.951-4.724-22.043-4.724c-7.897,0-15.171,1.477-21.823,4.424c-6.652,2.954-12.401,6.927-17.246,11.925
			c-4.858,4.998-8.629,10.747-11.327,17.246c-2.697,6.499-4.052,13.249-4.052,20.249c0,6.896,1.306,13.597,3.906,20.096
			c2.6,6.499,6.249,12.278,10.948,17.325c4.699,5.047,10.35,9.099,16.941,12.145c6.603,3.051,13.951,4.577,22.055,4.577
			c4.589,0,8.971-0.5,13.121-1.501c4.15-0.995,8.068-2.447,11.778-4.351l4.797,5.102h27.291L298.523,344.805z M281.582,316.604
			c-0.513,2.502-1.306,4.9-2.404,7.201l-5.846-6.45h-27.303l17.551,19.199c-1.501,0.403-3.357,0.598-5.553,0.598
			c-4.199,0-7.824-0.769-10.875-2.325c-3.051-1.55-5.566-3.619-7.567-6.225c-2.002-2.594-3.503-5.572-4.504-8.922
			c-1.001-3.35-1.501-6.823-1.501-10.423c0-3.496,0.476-6.92,1.428-10.271c0.952-3.351,2.429-6.353,4.431-9.001
			c1.989-2.648,4.516-4.797,7.567-6.451c3.051-1.647,6.676-2.471,10.875-2.471c4.101,0,7.677,0.775,10.728,2.325
			c3.039,1.55,5.59,3.625,7.641,6.225c2.051,2.6,3.576,5.571,4.577,8.922c1.001,3.35,1.501,6.823,1.501,10.423
			C282.327,311.557,282.07,314.109,281.582,316.604z"/>
	</g>
</g>
<g>
	<g>
		<polygon points="353.716,336.854 353.716,255.865 324.472,255.865 324.472,362.349 402,362.349 402,336.854 		"/>
	</g>
</g>
<g>
</g>
<g>
</g>
<g>
</g>
<g>
</g>
<g>
</g>
<g>
</g>
<g>
</g>
<g>
</g>
<g>
</g>
<g>
</g>
<g>
</g>
<g>
</g>
<g>
</g>
<g>
</g>
<g>
</g>
</svg>
